<svg xmlns="http://www.w3.org/2000/svg" xmlns:xlink="http://www.w3.org/1999/xlink" width="154" height="154" viewBox="0 0 154 154">
  <defs>
    <clipPath id="clip-logo">
      <rect width="154" height="154"/>
    </clipPath>
  </defs>
  <g id="logo" clip-path="url(#clip-logo)">
    <g id="Group_101" data-name="Group 101" transform="translate(-184 -198.497)">
      <g id="Group_4" data-name="Group 4" transform="translate(207.159 307.505)">
        <path id="Path_1" data-name="Path 1" d="M22.14,37.02Z" transform="translate(-20.869 -23.911)" fill="#0b5e85"/>
        <path id="Path_2" data-name="Path 2" d="M56.234,41.922a2.019,2.019,0,0,1-1.711-1.062,3.731,3.731,0,0,1-.65-2.276,2.79,2.79,0,0,1,.65-1.968,2.345,2.345,0,0,1,1.592-.667h0a23.957,23.957,0,0,1,3.252.291V34.2a25.5,25.5,0,0,0-3.252-.274h0a5.51,5.51,0,0,0-1.814.325,4.176,4.176,0,0,0-1.506.907,3.953,3.953,0,0,0-.975,1.472,5.015,5.015,0,0,0-.359,1.951,3.268,3.268,0,0,0,.12.89,5.135,5.135,0,0,0,.291.856,6.175,6.175,0,0,0,.394.753,7.665,7.665,0,0,0,.65.753v.086H41.841a1.711,1.711,0,0,1-.633-.12,1.609,1.609,0,0,1-.565-.343,2,2,0,0,1-.394-.616,2.309,2.309,0,0,1-.154-.89V29.36l-2.413.941V40.347a2,2,0,0,1-.137.77,1.523,1.523,0,0,1-.359.479,1.232,1.232,0,0,1-.462.257,2.175,2.175,0,0,1-.445,0H34.362V33.878l-2.4.941v7.1H29.69v2.054h6.349a6.215,6.215,0,0,0,.753,0,4.518,4.518,0,0,0,.89-.171,5,5,0,0,0,.907-.359,3.423,3.423,0,0,0,.839-.667,3.234,3.234,0,0,0,1.147.873,3.422,3.422,0,0,0,1.506.359H60.615V41.922Z" transform="translate(-15.498 -29.36)" fill="#0b5e85"/>
        <path id="Path_3" data-name="Path 3" d="M59.875,39.953V29.36l-2.4.941V40.347a1.712,1.712,0,0,1-.154.77,1.146,1.146,0,0,1-.359.479,1.232,1.232,0,0,1-.462.257,2.175,2.175,0,0,1-.445,0h-1.9V33.878l-2.414.941v7.1H49.47v2.071h7.1a4.3,4.3,0,0,0,.89-.171,4.125,4.125,0,0,0,.924-.359,3.692,3.692,0,0,0,1.489-3.508Z" transform="translate(-1.427 -29.36)" fill="#0b5e85"/>
        <path id="Path_4" data-name="Path 4" d="M59.6,29.36l-2.327.924V43.992H59.6Z" transform="translate(4.122 -29.36)" fill="#0b5e85"/>
        <path id="Path_5" data-name="Path 5" d="M70.55,33.313a4.176,4.176,0,0,0-1.592-.958,6.845,6.845,0,0,0-4.159,0,4.175,4.175,0,0,0-1.592.958,4.056,4.056,0,0,0-1.027,1.574,6.024,6.024,0,0,0-.359,2.225,6.127,6.127,0,0,0,.308,2.14,4.194,4.194,0,0,0,1.027,1.574,4.4,4.4,0,0,0,1.592.958,7.171,7.171,0,0,0,4.159,0,4.4,4.4,0,0,0,1.592-.958,4.194,4.194,0,0,0,1.027-1.574,6.109,6.109,0,0,0,.428-2.14,6.006,6.006,0,0,0-.376-2.173,4.056,4.056,0,0,0-1.027-1.626ZM68.839,39.2a2.79,2.79,0,0,1-3.988,0,3.269,3.269,0,0,1-.685-2.14,3.218,3.218,0,0,1,.685-2.122,2.79,2.79,0,0,1,3.988,0,3.218,3.218,0,0,1,.685,2.122,3.269,3.269,0,0,1-.65,2.14Z" transform="translate(7.357 -27.46)" fill="#0b5e85"/>
        <path id="Path_6" data-name="Path 6" d="M72.2,46.136a6.178,6.178,0,0,0,.8-3.423V32l-2.327.907v9.721a7.923,7.923,0,0,1-.1,1.421,2.532,2.532,0,0,1-.274.839,1.01,1.01,0,0,1-.462.393,1.711,1.711,0,0,1-.6.1H67.7V47.4h1.711A2.978,2.978,0,0,0,72.2,46.136Z" transform="translate(11.542 -27.482)" fill="#0b5e85"/>
        <path id="Path_7" data-name="Path 7" d="M74.837,29.36,72.51,30.3V43.787h2.327Z" transform="translate(14.963 -29.36)" fill="#0b5e85"/>
        <path id="Path_8" data-name="Path 8" d="M78.371,46.136a6.178,6.178,0,0,0,.8-3.423V32l-2.327.924V42.61a7.926,7.926,0,0,1-.1,1.421,2.534,2.534,0,0,1-.274.839,1.01,1.01,0,0,1-.462.394,1.712,1.712,0,0,1-.6.1H73.87V47.4h1.711A2.978,2.978,0,0,0,78.371,46.136Z" transform="translate(15.931 -27.482)" fill="#0b5e85"/>
        <path id="Path_9" data-name="Path 9" d="M77.937,29.36v2.807l-2.327-.924V29.36Z" transform="translate(17.169 -29.36)" fill="#0b5e85"/>
        <path id="Path_10" data-name="Path 10" d="M67.717,29.36v2.807l-2.327-.924V29.36Z" transform="translate(9.898 -29.36)" fill="#0b5e85"/>
        <path id="Path_11" data-name="Path 11" d="M65.127,29.36v2.807L62.8,31.243V29.36Z" transform="translate(8.056 -29.36)" fill="#0b5e85"/>
        <path id="Path_12" data-name="Path 12" d="M52.462,41.487a.719.719,0,0,1-.582-.222.89.89,0,0,1-.205-.616.924.924,0,0,1,.188-.6.6.6,0,0,1,.479-.205,9.551,9.551,0,0,1,1.215.1v-.753a9.549,9.549,0,0,0-1.215-.1,1.711,1.711,0,0,0-1.215.376,1.352,1.352,0,0,0-.428,1.078,1.473,1.473,0,0,0,.086.462,2.361,2.361,0,0,0,.24.411H50.34v.941h3.628v-.821Z" transform="translate(-0.808 -22.44)" fill="#0b5e85"/>
        <path id="Path_13" data-name="Path 13" d="M88.037,35.509a4.809,4.809,0,0,0-.787-1.883,3.422,3.422,0,0,0-1.506-1.164A5.836,5.836,0,0,0,83.416,32a5.682,5.682,0,0,0-2.31.428,3.782,3.782,0,0,0-1.455,1.147,4.244,4.244,0,0,0-.753,1.711,10.029,10.029,0,0,0-.222,2.156,5,5,0,0,0,.359,1.934,4.432,4.432,0,0,0,1.01,1.472,4.192,4.192,0,0,0,1.54.958,5.6,5.6,0,0,0,1.968.325h.65a7.188,7.188,0,0,0,1.574-1.062C85.59,43.433,85.2,45.4,81.859,45.4H79.925v2h2.242a7.787,7.787,0,0,0,2.875-.462,4.159,4.159,0,0,0,1.9-1.523,9.362,9.362,0,0,0,1.027-3.132,21.872,21.872,0,0,0,.308-3.97A15.023,15.023,0,0,0,88.037,35.509Zm-2.191,4.552H83.554a2.4,2.4,0,0,1-1.848-.633,2.824,2.824,0,0,1-.6-2,7.509,7.509,0,0,1,.12-1.4,2.738,2.738,0,0,1,.376-.993,2.019,2.019,0,0,1,.736-.685,2.6,2.6,0,0,1,1.164-.24,1.934,1.934,0,0,1,1.883.975,7.411,7.411,0,0,1,.531,3.1C85.915,38.846,85.881,39.5,85.847,40.061Z" transform="translate(19.356 -27.483)" fill="#0b5e85"/>
        <path id="Path_14" data-name="Path 14" d="M33.241,34.821a4.193,4.193,0,0,0-1.062-1.557,4.552,4.552,0,0,0-1.608-.924A7.051,7.051,0,0,0,28.535,32a5.99,5.99,0,0,0-2.037.325,4.432,4.432,0,0,0-1.608.942,4.21,4.21,0,0,0-1.062,1.54,5.049,5.049,0,0,0,.137,4.142,5.9,5.9,0,0,0,1.711,1.078,5.238,5.238,0,0,0-.924,0h-.427a5.3,5.3,0,0,0-1.044.376,3.3,3.3,0,0,0-1.062.856,4.141,4.141,0,0,0-.821,2.67V47.4h2.328V44.1a3.628,3.628,0,0,1,.086-.753,1.523,1.523,0,0,1,.343-.633,1.472,1.472,0,0,1,.667-.445,3.1,3.1,0,0,1,1.062-.154h2.7a6.845,6.845,0,0,0,2.088-.308,4.552,4.552,0,0,0,1.592-.907,4.312,4.312,0,0,0,1.044-1.54,7.5,7.5,0,0,0,.359-2.43A5.254,5.254,0,0,0,33.241,34.821Zm-2.721,4.5a2.464,2.464,0,0,1-1.985.8,2.516,2.516,0,0,1-2-.8,4.056,4.056,0,0,1-.685-2.4,3.166,3.166,0,0,1,.684-2.087,2.892,2.892,0,0,1,4,0,3.149,3.149,0,0,1,.667,2.088A3.937,3.937,0,0,1,30.52,39.322Z" transform="translate(-21.394 -27.479)" fill="#0b5e85"/>
      </g>
      <g id="Group_6" data-name="Group 6" transform="translate(189 334.973)">
        <path id="Path_15" data-name="Path 15" d="M13.931,45.41V58.742H11.62V49.38a17.849,17.849,0,0,1-.839,1.9L7.958,56.808H5.938L3.166,51.28a17.371,17.371,0,0,1-.907-1.934v9.4H0V45.41H2.533l3.029,5.87a27.723,27.723,0,0,1,1.421,3.183A21.957,21.957,0,0,1,8.4,51.28l3.028-5.87Z" transform="translate(0 -45.41)" fill="#0b5e85"/>
        <path id="Path_16" data-name="Path 16" d="M9.25,47.982l2.225-.222v9.311H9.25Z" transform="translate(6.58 -43.738)" fill="#0b5e85"/>
        <path id="Path_17" data-name="Path 17" d="M19.892,50.559v6.555H17.667V51.278c0-1.335-.377-1.711-1.455-1.711a5.288,5.288,0,0,0-2.327.633v6.914H11.66V48.026l2.225-.222v.89a6.247,6.247,0,0,1,3.2-.975,2.515,2.515,0,0,1,2.807,2.841Z" transform="translate(8.295 -43.782)" fill="#0b5e85"/>
        <path id="Path_18" data-name="Path 18" d="M17.58,47.982,19.8,47.76v9.311H17.58Z" transform="translate(12.506 -43.738)" fill="#0b5e85"/>
        <path id="Path_19" data-name="Path 19" d="M20,56.156l.958-1.506a5.237,5.237,0,0,0,3.1,1.062c1.1,0,1.711-.377,1.711-1.044s-.343-.924-1.883-1.335l-.616-.154c-1.917-.513-2.79-1.3-2.79-2.721a3.229,3.229,0,0,1,3.56-2.739,7.068,7.068,0,0,1,3.645.992l-.856,1.472a5.356,5.356,0,0,0-2.737-.77c-.873,0-1.335.359-1.335.907s.308.719,1.437.993l.65.171c2.242.6,3.166,1.506,3.166,2.978s-1.266,2.926-3.816,2.926A6.743,6.743,0,0,1,20,56.156Z" transform="translate(14.227 -43.783)" fill="#0b5e85"/>
        <path id="Path_20" data-name="Path 20" d="M32.27,57.624a5.237,5.237,0,0,1-2.482.616,2.618,2.618,0,0,1-2.807-2.926V50.607H25.27V48.9h1.711V46.843l2.208-.343v2.4H32.03l-.222,1.711H29.189v4.364c0,1.027.394,1.455,1.1,1.455a3.611,3.611,0,0,0,1.369-.325Z" transform="translate(17.976 -44.635)" fill="#0b5e85"/>
        <path id="Path_21" data-name="Path 21" d="M36.54,47.9l-.376,2.259a3.68,3.68,0,0,0-1.335-.24,2.482,2.482,0,0,0-2.174,1.266v5.921H30.43V48l2.225-.205v1.3a3.132,3.132,0,0,1,2.6-1.386A4.16,4.16,0,0,1,36.54,47.9Z" transform="translate(21.647 -43.775)" fill="#0b5e85"/>
        <path id="Path_22" data-name="Path 22" d="M43.609,47.908v.205l-3.149,9.207c-.958,2.772-2.1,3.885-4.193,3.885a5.561,5.561,0,0,1-1.917-.343l.565-1.609a3.919,3.919,0,0,0,1.164.171c.856,0,1.557-.222,2.242-2.037l.1-.291h-.6L34.4,48.114v-.12h2.345l1.865,5.254c.222.633.376,1.181.513,1.711.137-.513.308-1.112.462-1.711L41.3,47.84Z" transform="translate(24.435 -43.681)" fill="#0b5e85"/>
        <path id="Path_23" data-name="Path 23" d="M19.857,45.41v2.807l-2.327-.924V45.41Z" transform="translate(12.471 -45.41)" fill="#0b5e85"/>
        <path id="Path_24" data-name="Path 24" d="M11.547,45.41v2.807L9.22,47.293V45.41Z" transform="translate(6.559 -45.41)" fill="#0b5e85"/>
        <path id="Path_25" data-name="Path 25" d="M42.2,52.642a4.4,4.4,0,0,1,4.6-4.86c2.978,0,4.5,2.037,4.5,4.912a4.552,4.552,0,1,1-9.1,0Zm7.034,0c0-1.848-.787-3.115-2.43-3.115s-2.55,1.249-2.55,3.046.787,2.943,2.448,2.943,2.533-1.027,2.533-2.824Z" transform="translate(30.003 -43.726)" fill="#0b5e85"/>
        <path id="Path_26" data-name="Path 26" d="M52.358,49.018v1.574h2.618L54.754,52.3h-2.4v6.435H50.133v-6.4H48.61V50.627h1.523v-1.54a3.32,3.32,0,0,1,3.423-3.645,5.836,5.836,0,0,1,2.191.393l-.565,1.712a3.594,3.594,0,0,0-1.437-.291C52.854,47.255,52.358,47.923,52.358,49.018Z" transform="translate(34.58 -45.39)" fill="#0b5e85"/>
        <path id="Path_27" data-name="Path 27" d="M69.671,45.44V58.772H67.377V49.41a20.529,20.529,0,0,1-.856,1.883l-2.807,5.545H61.7l-2.789-5.545a14.218,14.218,0,0,1-.89-1.934v9.413H55.74V45.44h2.533l3.047,5.853a24.134,24.134,0,0,1,1.421,3.2,23.186,23.186,0,0,1,1.421-3.2l3.044-5.853Z" transform="translate(39.652 -45.389)" fill="#0b5e85"/>
        <path id="Path_28" data-name="Path 28" d="M73.348,53.023H67.222c.1,1.933,1.232,2.636,2.481,2.636a5.015,5.015,0,0,0,2.7-.821l.787,1.437a6.367,6.367,0,0,1-3.645,1.13A4.176,4.176,0,0,1,65.014,52.7c0-2.859,1.54-4.963,4.467-4.963a3.662,3.662,0,0,1,3.937,3.885C73.417,52,73.4,52.526,73.348,53.023Zm-6.024-1.54h3.953c0-1.472-.753-2.071-1.711-2.071a2.379,2.379,0,0,0-2.242,2.071Z" transform="translate(46.225 -43.764)" fill="#0b5e85"/>
        <path id="Path_29" data-name="Path 29" d="M79.714,45.42V58.786H77.763l-.137-.685a5.305,5.305,0,0,1-2.858.941c-2.5,0-3.816-1.711-3.816-4.6A4.587,4.587,0,0,1,75.692,49.3a6.264,6.264,0,0,1,1.8.274V45.66ZM75.35,57.28a4,4,0,0,0,2.14-.6v-5.39a4.347,4.347,0,0,0-1.54-.24c-1.523,0-2.67,1.062-2.67,3.423,0,1.934.753,2.807,2.071,2.807Z" transform="translate(50.454 -45.403)" fill="#0b5e85"/>
        <path id="Path_30" data-name="Path 30" d="M77.17,48l2.225-.222v9.327H77.17Z" transform="translate(54.897 -43.724)" fill="#0b5e85"/>
        <path id="Path_31" data-name="Path 31" d="M87.64,50.781v6.383H85.707l-.171-.77a5.134,5.134,0,0,1-3.183,1.027,2.481,2.481,0,0,1-2.772-2.482c0-2.327,2.687-3.32,5.836-3.423v-.343c0-1.147-.343-1.711-1.472-1.711A5.613,5.613,0,0,0,80.9,50.506l-.907-1.421a7.205,7.205,0,0,1,4.278-1.4C86.442,47.752,87.64,48.624,87.64,50.781Zm-4.569,4.912a4.535,4.535,0,0,0,2.362-.633V53.023c-2.14.1-3.423.65-3.423,1.711-.1.616.308.958,1.061.958Z" transform="translate(56.612 -43.781)" fill="#0b5e85"/>
        <path id="Path_32" data-name="Path 32" d="M79.467,45.44v2.79l-2.327-.924V45.44Z" transform="translate(54.876 -45.389)" fill="#0b5e85"/>
      </g>
      <g id="Group_5" data-name="Group 5" transform="translate(214.725 199.498)">
        <path id="Path_33" data-name="Path 33" d="M149.435,23.969A15.4,15.4,0,0,0,139.321,13.6a15.18,15.18,0,0,1,7.975-.343.325.325,0,0,0,.308-.548A15.183,15.183,0,0,0,145.43,11a15.4,15.4,0,0,0-8.454-2.567h-.325a15.607,15.607,0,0,1,5.134-2.755.325.325,0,0,0,0-.616,15.4,15.4,0,0,0-8.66.65,7.719,7.719,0,0,1,2.67-3.833.325.325,0,0,0-.222-.582,7.924,7.924,0,0,0-5.973,3.32,7.77,7.77,0,0,0-1.712-4.5.325.325,0,0,0-.5,0,7.872,7.872,0,0,0-1.711,4.5,7.924,7.924,0,0,0-6.008-3.3.325.325,0,0,0-.222.582,7.718,7.718,0,0,1,2.67,3.833,15.4,15.4,0,0,0-8.66-.582.325.325,0,0,0,0,.616,15.4,15.4,0,0,1,5.031,2.755h-.343a15.4,15.4,0,0,0-8.437,2.533,15.183,15.183,0,0,0-2.172,1.712.325.325,0,0,0,.308.548,15.4,15.4,0,0,1,3.423-.376,15.163,15.163,0,0,1,4.6.719,15.4,15.4,0,0,0-10.1,10.371.325.325,0,0,0,.548.325,15.044,15.044,0,0,1,9.652-4.723,15.283,15.283,0,0,0-6.846,13.69.325.325,0,0,0,.633.1,15.076,15.076,0,0,1,8.9-8.557,15.009,15.009,0,0,0-3.937,9.892,15.2,15.2,0,0,0,.873,5.134.325.325,0,0,0,.633,0,14.649,14.649,0,0,1,7.53-11.227l.531-.291a.137.137,0,0,1,.205,0,39.358,39.358,0,0,1,.685,8.933c0,7.616-.616,22.351-.685,22.966l3.064,2.243h.1l3.046-2.242c0-.633-.685-15.4-.685-22.966a39.36,39.36,0,0,1,.685-8.933.12.12,0,0,1,.188,0l.548.291a14.649,14.649,0,0,1,7.53,11.227.325.325,0,0,0,.633,0,15.2,15.2,0,0,0,.873-5.134,15.008,15.008,0,0,0-3.885-10.1,15.077,15.077,0,0,1,8.9,8.557.325.325,0,0,0,.633-.1,15.283,15.283,0,0,0-6.846-13.691,15.044,15.044,0,0,1,9.67,4.877.325.325,0,0,0,.479-.325Z" transform="translate(-81.14 0.001)" fill="#19a781"/>
        <path id="Path_34" data-name="Path 34" d="M127.355,49.528a4.6,4.6,0,0,1-.548.462,1.9,1.9,0,0,1-.514.291,1.009,1.009,0,0,1-.462,0,.924.924,0,0,1-.411-.154,2.654,2.654,0,0,1-.411-.462,2.379,2.379,0,0,0-.7-.6,2.584,2.584,0,0,0-.993-.308,2.7,2.7,0,0,0-.975,0h0a2.515,2.515,0,0,0-.821.428,2.379,2.379,0,0,0-.856,1.369,2.533,2.533,0,0,0,.086,1.472,3.183,3.183,0,0,0,3.423,1.865,7.445,7.445,0,0,0,4.039-2.636,2.105,2.105,0,0,0-.291-2.5A1.692,1.692,0,0,1,127.355,49.528Z" transform="translate(-70.577 34.666)" fill="#19a781"/>
        <path id="Path_35" data-name="Path 35" d="M119.336,49.954a2.721,2.721,0,0,0-.582-.667,2.687,2.687,0,0,0-.821-.428h0a2.585,2.585,0,0,0-.958,0,2.413,2.413,0,0,0-.993.308,2.379,2.379,0,0,0-.7.6,2.652,2.652,0,0,1-.411.462.992.992,0,0,1-.428.154.976.976,0,0,1-.445,0,1.9,1.9,0,0,1-.513-.291,4.606,4.606,0,0,1-.548-.462c-.205-.188-.394-.394-.582-.6a2.1,2.1,0,0,0-.257,2.327,7.445,7.445,0,0,0,4.039,2.636,3.2,3.2,0,0,0,3.423-1.865,2.618,2.618,0,0,0-.188-2.173Z" transform="translate(-76.797 34.737)" fill="#19a781"/>
        <path id="Path_36" data-name="Path 36" d="M184.02,34.427c-17.439-6.846-34.228.941-46.207,9.567-11.98-8.557-28.768-16.413-46.208-9.567a.394.394,0,0,0,.171.753c15.3-1.215,27.382,2.1,41.758,11.98-4.312,3.423-7.8,6.846-10.268,9.053-.359-.513-.975-1.318-1.3-1.711a7.445,7.445,0,0,0-4.039-2.636,3.183,3.183,0,0,0-3.423,1.865,2.7,2.7,0,0,0-.1,1.472,2.534,2.534,0,0,0,.291.89,2.722,2.722,0,0,0,.582.667,2.515,2.515,0,0,0,.821.428h0a2.7,2.7,0,0,0,.975,0,2.585,2.585,0,0,0,.993-.308,2.379,2.379,0,0,0,.7-.6,2.653,2.653,0,0,1,.411-.462.856.856,0,0,1,.873,0,2.96,2.96,0,0,1,.513.274,14.426,14.426,0,0,1,1.9,2.071l.7.873.308.411s-2.464-.907-2.841-.565c-1.711,1.711-3.234,3.063-4.552,4.261a13.18,13.18,0,0,1-1.215.975,8.559,8.559,0,0,1-1.078.633,5.015,5.015,0,0,1-.975.325,3.8,3.8,0,0,1-.873.1,4.141,4.141,0,0,1-.787-.1,5.241,5.241,0,0,1-.736-.222l-.685-.308a5.137,5.137,0,0,0-.685-.343,2.7,2.7,0,0,0-.719-.154h-.479a2.67,2.67,0,0,0-1.284.479,2.636,2.636,0,0,0-.89,1.1,2.789,2.789,0,0,0-.224,1.335,2.755,2.755,0,0,0,.5,1.3,3.6,3.6,0,0,0,.7.736,5.138,5.138,0,0,0,.958.582,5.955,5.955,0,0,0,1.164.428,8.557,8.557,0,0,0,1.318.24,9.773,9.773,0,0,0,1.421,0,3.955,3.955,0,0,0,.633,0c3.1-.291,6.127-2.926,7.684-4.4,5.7-5.443,17.919-15.4,17.919-15.4s12.218,9.96,17.919,15.4c1.557,1.472,4.586,4.107,7.667,4.4a4.163,4.163,0,0,0,.65,0,9.779,9.779,0,0,0,1.421,0,8.556,8.556,0,0,0,1.318-.24,5.957,5.957,0,0,0,1.164-.428,4.517,4.517,0,0,0,.941-.582,3.266,3.266,0,0,0,.719-.736,2.942,2.942,0,0,0,.493-1.3,2.789,2.789,0,0,0-.222-1.335,2.636,2.636,0,0,0-.89-1.1,2.67,2.67,0,0,0-1.283-.479h-.462a2.7,2.7,0,0,0-.719.154,5.132,5.132,0,0,0-.685.343l-.7.308a4.994,4.994,0,0,1-.719.222,4.141,4.141,0,0,1-.787.1,3.594,3.594,0,0,1-.873-.1,4.672,4.672,0,0,1-.975-.325,8.556,8.556,0,0,1-1.078-.633,13.187,13.187,0,0,1-1.215-.975c-1.318-1.2-2.755-2.55-4.552-4.261-.377-.343-2.841.565-2.841.565l.308-.411.7-.873a13.5,13.5,0,0,1,1.968-2.071,2.963,2.963,0,0,1,.513-.274.838.838,0,0,1,.462-.086.924.924,0,0,1,.411.154,2.654,2.654,0,0,1,.411.462,2.379,2.379,0,0,0,.7.6,2.584,2.584,0,0,0,.993.308,2.7,2.7,0,0,0,.975,0h0a2.516,2.516,0,0,0,.821-.428,2.722,2.722,0,0,0,.6-.736,2.5,2.5,0,0,0,.274-.7,2.534,2.534,0,0,0,0-1.472,3.2,3.2,0,0,0-3.423-1.865,7.445,7.445,0,0,0-4.039,2.636c-.325.377-.941,1.181-1.318,1.711a136.351,136.351,0,0,0-10.268-9.053c14.376-9.96,26.475-13.28,41.775-11.98a.474.474,0,0,0,.12-.941Z" transform="translate(-91.372 22.641)" fill="#19a781"/>
      </g>
    </g>
  </g>
</svg>
